<svg xmlns="http://www.w3.org/2000/svg" xmlns:xlink="http://www.w3.org/1999/xlink" contentStyleType="text/css" height="528px" preserveAspectRatio="none" style="width:219px;height:528px;background:#FFFFFF;" version="1.1" viewBox="0 0 219 528" width="219px" zoomAndPan="magnify"><defs/><g><!--class TAB_CLIENTES--><g id="elem_TAB_CLIENTES"><rect codeLine="1" fill="#F1F1F1" height="129.4844" id="TAB_CLIENTES" rx="2.5" ry="2.5" style="stroke:#181818;stroke-width:0.5;" width="205.2314" x="7" y="7"/><ellipse cx="54.3457" cy="23" fill="#ADD1B2" rx="11" ry="11" style="stroke:#181818;stroke-width:1.0;"/><path d="M57.3145,28.6406 Q56.7363,28.9375 56.0957,29.0781 Q55.4551,29.2344 54.752,29.2344 Q52.252,29.2344 50.9238,27.5938 Q49.6113,25.9375 49.6113,22.8125 Q49.6113,19.6875 50.9238,18.0313 Q52.252,16.375 54.752,16.375 Q55.4551,16.375 56.0957,16.5313 Q56.752,16.6875 57.3145,16.9844 L57.3145,19.7031 Q56.6895,19.125 56.0957,18.8594 Q55.502,18.5781 54.877,18.5781 Q53.5332,18.5781 52.8457,19.6563 Q52.1582,20.7188 52.1582,22.8125 Q52.1582,24.9063 52.8457,25.9844 Q53.5332,27.0469 54.877,27.0469 Q55.502,27.0469 56.0957,26.7813 Q56.6895,26.5 57.3145,25.9219 L57.3145,28.6406 Z " fill="#000000"/><text fill="#000000" font-family="sans-serif" font-size="14" lengthAdjust="spacing" textLength="102.04" x="74.8457" y="27.8467">TAB_CLIENTES</text><line style="stroke:#181818;stroke-width:0.5;" x1="8" x2="211.2314" y1="39" y2="39"/><line style="stroke:#181818;stroke-width:0.5;" x1="8" x2="211.2314" y1="47" y2="47"/><ellipse cx="18" cy="60.6484" fill="#84BE84" rx="3" ry="3" style="stroke:#038048;stroke-width:1.0;"/><text fill="#000000" font-family="sans-serif" font-size="14" lengthAdjust="spacing" textLength="166.1953" x="27" y="63.9951">listar_clientes() : logical</text><ellipse cx="18" cy="76.9453" fill="#84BE84" rx="3" ry="3" style="stroke:#038048;stroke-width:1.0;"/><text fill="#000000" font-family="sans-serif" font-size="14" lengthAdjust="spacing" textLength="153.1455" x="27" y="80.292">lista_cliente() : logical</text><ellipse cx="18" cy="93.2422" fill="#84BE84" rx="3" ry="3" style="stroke:#038048;stroke-width:1.0;"/><text fill="#000000" font-family="sans-serif" font-size="14" lengthAdjust="spacing" textLength="161.1162" x="27" y="96.5889">inclui_cliente() : logical</text><ellipse cx="18" cy="109.5391" fill="#84BE84" rx="3" ry="3" style="stroke:#038048;stroke-width:1.0;"/><text fill="#000000" font-family="sans-serif" font-size="14" lengthAdjust="spacing" textLength="179.2314" x="27" y="112.8857">atualiza_cliente() : logical</text><ellipse cx="18" cy="125.8359" fill="#84BE84" rx="3" ry="3" style="stroke:#038048;stroke-width:1.0;"/><text fill="#000000" font-family="sans-serif" font-size="14" lengthAdjust="spacing" textLength="173.8311" x="27" y="129.1826">deletar_cliente() : logical</text></g><!--class Cliente--><g id="elem_Cliente"><rect codeLine="9" fill="#F1F1F1" height="308.75" id="Cliente" rx="2.5" ry="2.5" style="stroke:#181818;stroke-width:0.5;" width="162.0283" x="28.5" y="213"/><ellipse cx="80.6924" cy="229" fill="#ADD1B2" rx="11" ry="11" style="stroke:#181818;stroke-width:1.0;"/><path d="M83.6611,234.6406 Q83.083,234.9375 82.4424,235.0781 Q81.8018,235.2344 81.0986,235.2344 Q78.5986,235.2344 77.2705,233.5938 Q75.958,231.9375 75.958,228.8125 Q75.958,225.6875 77.2705,224.0313 Q78.5986,222.375 81.0986,222.375 Q81.8018,222.375 82.4424,222.5313 Q83.0986,222.6875 83.6611,222.9844 L83.6611,225.7031 Q83.0361,225.125 82.4424,224.8594 Q81.8486,224.5781 81.2236,224.5781 Q79.8799,224.5781 79.1924,225.6563 Q78.5049,226.7188 78.5049,228.8125 Q78.5049,230.9063 79.1924,231.9844 Q79.8799,233.0469 81.2236,233.0469 Q81.8486,233.0469 82.4424,232.7813 Q83.0361,232.5 83.6611,231.9219 L83.6611,234.6406 Z " fill="#000000"/><text fill="#000000" font-family="sans-serif" font-size="14" lengthAdjust="spacing" textLength="49.1436" x="101.1924" y="233.8467">Cliente</text><line style="stroke:#181818;stroke-width:0.5;" x1="29.5" x2="189.5283" y1="245" y2="245"/><rect fill="none" height="6" style="stroke:#C82930;stroke-width:1.0;" width="6" x="36.5" y="255.6484"/><text fill="#000000" font-family="sans-serif" font-size="14" lengthAdjust="spacing" textLength="100.2969" x="48.5" y="261.9951">codigo : string</text><rect fill="none" height="6" style="stroke:#C82930;stroke-width:1.0;" width="6" x="36.5" y="271.9453"/><text fill="#000000" font-family="sans-serif" font-size="14" lengthAdjust="spacing" textLength="78.7295" x="48.5" y="278.292">loja : string</text><rect fill="none" height="6" style="stroke:#C82930;stroke-width:1.0;" width="6" x="36.5" y="288.2422"/><text fill="#000000" font-family="sans-serif" font-size="14" lengthAdjust="spacing" textLength="93.4951" x="48.5" y="294.5889">nome : string</text><rect fill="none" height="6" style="stroke:#C82930;stroke-width:1.0;" width="6" x="36.5" y="304.5391"/><text fill="#000000" font-family="sans-serif" font-size="14" lengthAdjust="spacing" textLength="103.0381" x="48.5" y="310.8857">pessoa : string</text><rect fill="none" height="6" style="stroke:#C82930;stroke-width:1.0;" width="6" x="36.5" y="320.8359"/><text fill="#000000" font-family="sans-serif" font-size="14" lengthAdjust="spacing" textLength="119.4238" x="48.5" y="327.1826">endereco : string</text><rect fill="none" height="6" style="stroke:#C82930;stroke-width:1.0;" width="6" x="36.5" y="337.1328"/><text fill="#000000" font-family="sans-serif" font-size="14" lengthAdjust="spacing" textLength="79.0029" x="48.5" y="343.4795">cep : string</text><rect fill="none" height="6" style="stroke:#C82930;stroke-width:1.0;" width="6" x="36.5" y="353.4297"/><text fill="#000000" font-family="sans-serif" font-size="14" lengthAdjust="spacing" textLength="95.2383" x="48.5" y="359.7764">bairro : string</text><rect fill="none" height="6" style="stroke:#C82930;stroke-width:1.0;" width="6" x="36.5" y="369.7266"/><text fill="#000000" font-family="sans-serif" font-size="14" lengthAdjust="spacing" textLength="100.3584" x="48.5" y="376.0732">cidade : string</text><rect fill="none" height="6" style="stroke:#C82930;stroke-width:1.0;" width="6" x="36.5" y="386.0234"/><text fill="#000000" font-family="sans-serif" font-size="14" lengthAdjust="spacing" textLength="101.2334" x="48.5" y="392.3701">estado : string</text><rect fill="none" height="6" style="stroke:#C82930;stroke-width:1.0;" width="6" x="36.5" y="402.3203"/><text fill="#000000" font-family="sans-serif" font-size="14" lengthAdjust="spacing" textLength="124.7832" x="48.5" y="408.667">data_nasc : string</text><rect fill="none" height="6" style="stroke:#C82930;stroke-width:1.0;" width="6" x="36.5" y="418.6172"/><text fill="#000000" font-family="sans-serif" font-size="14" lengthAdjust="spacing" textLength="114.3379" x="48.5" y="424.9639">abertura : string</text><rect fill="none" height="6" style="stroke:#C82930;stroke-width:1.0;" width="6" x="36.5" y="434.9141"/><text fill="#000000" font-family="sans-serif" font-size="14" lengthAdjust="spacing" textLength="82.4551" x="48.5" y="441.2607">pais : string</text><rect fill="none" height="6" style="stroke:#C82930;stroke-width:1.0;" width="6" x="36.5" y="451.2109"/><text fill="#000000" font-family="sans-serif" font-size="14" lengthAdjust="spacing" textLength="92.415" x="48.5" y="457.5576">email : string</text><rect fill="none" height="6" style="stroke:#C82930;stroke-width:1.0;" width="6" x="36.5" y="467.5078"/><text fill="#000000" font-family="sans-serif" font-size="14" lengthAdjust="spacing" textLength="136.0283" x="48.5" y="473.8545">dt_cadastro : string</text><rect fill="none" height="6" style="stroke:#C82930;stroke-width:1.0;" width="6" x="36.5" y="483.8047"/><text fill="#000000" font-family="sans-serif" font-size="14" lengthAdjust="spacing" textLength="86.1465" x="48.5" y="490.1514">DDD : string</text><rect fill="none" height="6" style="stroke:#C82930;stroke-width:1.0;" width="6" x="36.5" y="500.1016"/><text fill="#000000" font-family="sans-serif" font-size="14" lengthAdjust="spacing" textLength="107.0645" x="48.5" y="506.4482">contato : string</text><line style="stroke:#181818;stroke-width:0.5;" x1="29.5" x2="189.5283" y1="513.75" y2="513.75"/></g><!--link TAB_CLIENTES to Cliente--><g id="link_TAB_CLIENTES_Cliente"><path codeLine="28" d="M109.5,136.29 C109.5,159.09 109.5,179.87 109.5,206.95 " fill="none" id="TAB_CLIENTES-to-Cliente" style="stroke:#181818;stroke-width:1.0;"/><polygon fill="#181818" points="109.5,212.95,113.5,203.95,109.5,207.95,105.5,203.95,109.5,212.95" style="stroke:#181818;stroke-width:1.0;"/><polygon fill="#000000" points="114.5,179.5664,117.4389,170.5213,111.5611,170.5213,114.5,179.5664" style="stroke:#000000;stroke-width:1.0;"/><text fill="#000000" font-family="sans-serif" font-size="13" lengthAdjust="spacing" textLength="60.5503" x="123.5" y="179.0669">manipula</text></g><!--SRC=[VPB1QiD034Jl_WgHKqlm3_GGQECS2g6NvcuKhJ0gygvPhIyj_VSk907N2jdZw34Q3KkAPh0vlRxr- -FxuUDq-Dp0JmFrRK752kQUL3WMjgTdU05DWn3gahW1T-OIIMTv062PKUNxaKTWvKMCVyHlqz3bWlrbUWlV0gKWGwgibInnkAgQld2jnJJoMflOB3cIO-3Cv5o9fxLqHidPWn8mk6LSImoE3LYhZMYq7k2PSvcpIpUXcBCUKTGvbvumODNSqgxhNEOK2vO5MKjV_XTesnrSww_GY56cMH5sVm00]--></g></svg>